<?xml version="1.0" encoding="UTF-8"?>
<svg width="40px" height="41px" viewBox="0 0 22 21" version="1.1" xmlns="http://www.w3.org/2000/svg" xmlns:xlink="http://www.w3.org/1999/xlink">
    <!-- Generator: sketchtool 48.2 (47327) - http://www.bohemiancoding.com/sketch -->
    <title>172F23FD-CDA2-4E49-B585-D69C3E2D666D</title>
    <desc>Created with sketchtool.</desc>
    <defs></defs>
    <g id="quran-player-mobile-contracted" stroke="none" stroke-width="1" fill="none" fill-rule="evenodd" transform="translate(-177.000000, -638.000000)">
        <g id="Group-25" transform="translate(0.000000, 322.000000)" fill="#FFFFFF" fill-rule="nonzero">
            <g id="Group-31" transform="translate(0.000000, 308.000000)">
                <path d="M196.750635,13.2508056 C193.889937,8.22956127 187.553858,6.50905206 182.599366,9.40859585 C177.644479,12.3072035 175.946641,18.7278703 178.807866,23.7489141 C181.668168,28.7701585 188.00405,30.4909351 192.958607,27.5916588 C197.913561,24.6920481 199.612191,18.2717157 196.750635,13.2508056 Z M191.922894,25.772724 C187.959578,28.0924125 182.890411,26.7159249 180.602038,22.6987288 C178.313136,18.6823351 179.671895,13.545347 183.635343,11.2267952 C187.598923,8.90724037 192.667826,10.2835942 194.956332,14.3006566 C197.244903,18.3176521 195.88654,23.4535704 191.922894,25.772724 Z M191.508596,18.0732597 L186.083986,14.8671388 C185.589652,14.5746703 185.190925,14.808498 185.193696,15.3879521 L185.221474,21.7517834 C185.223982,22.3311038 185.627591,22.5669374 186.123377,22.2767423 L191.506485,19.1271894 C192.001742,18.8375293 192.002798,18.3657282 191.508596,18.0732597 Z" id="Shape"></path>
            </g>
        </g>
    </g>
</svg>