<?xml version="1.0" encoding="UTF-8"?>
<svg width="42px" height="41px" viewBox="0 0 42 41" version="1.1" xmlns="http://www.w3.org/2000/svg" xmlns:xlink="http://www.w3.org/1999/xlink">
    <!-- Generator: sketchtool 48.2 (47327) - http://www.bohemiancoding.com/sketch -->
    <title>C91DA21A-522B-47C9-92E0-E5EFA3D5B5F4</title>
    <desc>Created with sketchtool.</desc>
    <defs></defs>
    <g id="quran-player-web" stroke="none" stroke-width="1" fill="none" fill-rule="evenodd" transform="translate(-1254.000000, -506.000000)">
        <g id="Group-54" transform="translate(1139.000000, 430.000000)" fill="#323637" fill-rule="nonzero">
            <g id="play-button-(2)" transform="translate(115.445876, 76.000000)">
                <path d="M38.1651837,10.2515729 C32.517816,0.44819105 20.009618,-2.91089836 10.2288449,2.75011572 C0.447290339,8.40930214 -2.9044503,20.9448896 2.7439595,30.7478799 C8.39054572,40.5512618 20.8983529,43.9108733 30.6792563,38.2503815 C40.4609411,32.5892368 43.8142448,20.0543021 38.1651837,10.2515729 Z M28.6346319,34.6991277 C20.8105606,39.2280434 10.803403,36.5406153 6.28587352,28.6975181 C1.76730198,20.8559875 4.44965839,10.8266298 12.2739903,6.29993342 C20.0985827,1.77127881 30.1052192,4.4584459 34.6230092,12.301282 C39.1409295,20.1439875 36.4593546,30.1712564 28.6346319,34.6991277 Z M27.8167562,19.6668404 L17.107911,13.4072711 C16.132035,12.8362611 15.3448996,13.2927819 15.3503703,14.424097 L15.405208,26.84872 C15.4101577,27.979774 16.206932,28.4402112 17.1856736,27.8736398 L27.812588,21.7245127 C28.7902875,21.1589857 28.7923716,20.2378503 27.8167562,19.6668404 Z" id="Shape"></path>
            </g>
        </g>
    </g>
</svg>