<?xml version="1.0" encoding="UTF-8"?>
<svg width="18px" height="15px" viewBox="0 0 18 15" version="1.1" xmlns="http://www.w3.org/2000/svg" xmlns:xlink="http://www.w3.org/1999/xlink">
    <!-- Generator: sketchtool 48.2 (47327) - http://www.bohemiancoding.com/sketch -->
    <title>1AC7D604-DF2D-4222-9E54-FD7E09E2ADFA</title>
    <desc>Created with sketchtool.</desc>
    <defs></defs>
    <g id="quran-player-web" stroke="none" stroke-width="1" fill="none" fill-rule="evenodd" transform="translate(-1372.000000, -557.000000)">
        <g id="Group-54" transform="translate(1139.000000, 430.000000)" fill="#515457" fill-rule="nonzero">
            <g id="Group-41" transform="translate(23.000000, 127.000000)">
                <g id="High-Volume" transform="translate(210.000000, 0.000000)">
                    <g id="Layer_1">
                        <polygon id="Shape" points="7.99553571 13.4296875 7.99553571 1.57421875 4.18258929 5 0 5 0 10 4.18258929 10"></polygon>
                        <path d="M10.2495536,11.3945313 C11.0732143,10.3046875 11.5674107,8.9609375 11.5674107,7.5 C11.5674107,6.0390625 11.0732143,4.6953125 10.2495536,3.60546875 L9.42991071,4.203125 C10.1290179,5.125 10.546875,6.26171875 10.546875,7.5 C10.546875,8.734375 10.1290179,9.875 9.42991071,10.7929688 L10.2495536,11.3945313 Z" id="Shape"></path>
                        <path d="M12.9254464,13.1914063 C14.1308036,11.6015625 14.8540179,9.6328125 14.8540179,7.5 C14.8540179,5.3671875 14.1308036,3.40234375 12.9254464,1.80859375 L12.1058036,2.40625 C13.1866071,3.828125 13.8334821,5.58984375 13.8334821,7.5 C13.8334821,9.41015625 13.1866071,11.1679688 12.1058036,12.5898438 L12.9254464,13.1914063 Z" id="Shape"></path>
                        <path d="M14.653125,0.6015625 C16.115625,2.52734375 16.9794643,4.91796875 16.9794643,7.5 C16.9794643,10.0820313 16.115625,12.46875 14.653125,14.3984375 L15.4767857,15 C17.0598214,12.90625 18,10.3125 18,7.5 C18,4.6875 17.0598214,2.09375 15.4767857,0 L14.653125,0.6015625 Z" id="Shape"></path>
                    </g>
                </g>
            </g>
        </g>
    </g>
</svg>